REM GENRE Breakbeat
REM DATE 2011
REM COMMENT "DCue v1.4dev"
PERFORMER "Various"
TITLE "Hardcore Underground 5"
FILE "r3151795.wav" WAVE
	TRACK 01 AUDIO
		TITLE "Time Bomb (Al Storm Remix)"
		PERFORMER "CLSM Feat. Lisa Abbott"
		INDEX 01 00:00:00
	TRACK 02 AUDIO
		TITLE "Lights Down Low"
		PERFORMER "Technikore Feat. Jenny J"
		INDEX 01 03:12:00
	TRACK 03 AUDIO
		TITLE "Sheltered"
		PERFORMER "Al Storm , Technikore & JTS"
		INDEX 01 05:44:00
	TRACK 04 AUDIO
		TITLE "Hardcore Style"
		PERFORMER "Sy & Unknown"
		INDEX 01 08:27:00
	TRACK 05 AUDIO
		TITLE "All About Evolution"
		PERFORMER "Scott Brown & Al Storm"
		INDEX 01 09:42:00
	TRACK 06 AUDIO
		TITLE "The City Is Mine"
		PERFORMER "Sy & Technikore"
		INDEX 01 13:06:00
	TRACK 07 AUDIO
		TITLE "Get Ya Hands Up!"
		PERFORMER "Black & White Vs. Intraspekt & Outsider"
		INDEX 01 16:15:00
	TRACK 08 AUDIO
		TITLE "With Or Without You"
		PERFORMER "Unique"
		INDEX 01 18:02:00
	TRACK 09 AUDIO
		TITLE "Supersonik"
		PERFORMER "Technikore, JTS , Wain Johnstone & Kato"
		INDEX 01 20:11:00
	TRACK 10 AUDIO
		TITLE "So Much Stronger"
		PERFORMER "Al Storm Feat. Taya"
		INDEX 01 22:19:00
	TRACK 11 AUDIO
		TITLE "Euphoria"
		PERFORMER "Al Storm"
		INDEX 01 25:17:00
	TRACK 12 AUDIO
		TITLE "We'll Run Away"
		PERFORMER "Technikore & JTS Feat. Alan Booth"
		INDEX 01 28:29:00
	TRACK 13 AUDIO
		TITLE "Falling Out Of Love"
		PERFORMER "Fracus & Darwin Feat. Lisa Abbott"
		INDEX 01 32:43:00
	TRACK 14 AUDIO
		TITLE "Poltergeist"
		PERFORMER "Al Storm & MOB"
		INDEX 01 36:06:00
	TRACK 15 AUDIO
		TITLE "Feel The Power (Technikore Remix)"
		PERFORMER "Breeze & Styles"
		INDEX 01 38:01:00
	TRACK 16 AUDIO
		TITLE "Give A Little Bit Of Love"
		PERFORMER "Al Storm & Euphony Feat. Vicky Fee"
		INDEX 01 41:37:00
	TRACK 17 AUDIO
		TITLE "This Is How It's Done"
		PERFORMER "Technikore , Al Storm & JTS"
		INDEX 01 44:48:00
	TRACK 18 AUDIO
		TITLE "Betrayed (Winter Stayed)"
		PERFORMER "Technikore & Minty Feat. Nathalie"
		INDEX 01 47:05:00
	TRACK 19 AUDIO
		TITLE "The Fly (VIP Mix)"
		PERFORMER "Sy & Technikore"
		INDEX 01 51:18:00
	TRACK 20 AUDIO
		TITLE "Al Storm's Essential Mega-Muffin (Feat. MC Whizzkid)"
		PERFORMER "Dougal & Gammer"
		INDEX 01 53:46:00
	TRACK 21 AUDIO
		TITLE "Run To Me"
		PERFORMER "Al Storm Vs. Plus System Feat. Taya"
		INDEX 01 57:13:00
	TRACK 22 AUDIO
		TITLE "Step Down"
		PERFORMER "Fracus & Darwin"
		INDEX 01 59:33:00
	TRACK 23 AUDIO
		TITLE "Somebody"
		PERFORMER "Technikore"
		INDEX 01 61:30:00
	TRACK 24 AUDIO
		TITLE "Lonely (Abused Mix)"
		PERFORMER "Sy & Al Storm Feat. Meri Everitt"
		INDEX 01 64:07:00
	TRACK 25 AUDIO
		TITLE "Hardcore 2 The Bone!"
		PERFORMER "Al Storm"
		INDEX 01 66:38:00
	TRACK 26 AUDIO
		TITLE "Rock Me Out (Al Storm & Technikore's Chopper Mix)"
		PERFORMER "Darren Styles"
		INDEX 01 68:47:00
	TRACK 27 AUDIO
		TITLE "The Nerve Centre"
		PERFORMER "Sy & Technikore"
		INDEX 01 71:39:00
	TRACK 28 AUDIO
		TITLE "Payback"
		PERFORMER "Technikore & JTS"
		INDEX 01 73:37:00
